<svg id="Capa_1" enable-background="new 0 0 497 497" height="512" viewBox="0 0 497 497" width="512" xmlns="http://www.w3.org/2000/svg"><g><path d="m414.102 167.446c-1.564-.475-3.139-1.827-4.715-2.063-14.051-2.096-28.128 5.152-34.414 18.303l-37.167 82.969 8.58 8.169-11.171-2.387-.016.013c-5.368-4.057-12.43-5.644-19.298-3.851l-51.848 13.541c-8.43 2.202-17.258 2.41-25.782.607l-49.251-10.412c-.659-.139-1.319-.267-1.979-.382-27.205-4.745-53.561 12.159-61.69 38.552l-49.613 161.063h121.186l4.335-32.488c1.776-13.306 12.175-23.813 25.462-25.726l82.389-20.42c13.424-1.997 25.668-8.792 34.466-19.125l47.103-57.074c5.35-6.285 9.248-13.672 11.416-21.636l24.055-88.381c4.834-17.187 5.036-34.085-12.048-39.272z" fill="#5e9ad8"/><g><path d="m355.126 280.468c-4.376-8.514-10.869-12.35-17.32-13.812l-2.59 5.782-.016.013c-.005-.004-.01-.007-.015-.011 2.773 2.093 5.104 4.831 6.706 8.128 5.545 11.415.586 25.156-10.973 30.397l-94.792 42.985 1 3c2.857 5.886 9.885 8.424 15.844 5.722l89.158-40.43c14.744-6.685 20.072-27.213 12.998-41.774z" fill="#3e84cb"/></g><path d="m414.102 166.446c-1.564-.475-3.14-.822-4.715-1.057 6.955 8.062 9.855 19.338 6.764 30.329l-24.055 88.381c-2.168 7.964-6.065 15.351-11.416 21.636l-53.885 61.415c-8.798 10.334-21.042 17.128-34.466 19.125l-72.389 10.42c-13.287 1.913-23.687 12.42-25.462 25.726l-10.078 49.147h22.525l4.335-32.489c1.776-13.306 12.175-23.813 25.462-25.726l72.389-10.42c13.424-1.997 25.668-8.791 34.466-19.125l57.103-67.074c5.35-6.285 9.248-13.672 11.416-21.636l24.055-88.381c4.833-17.186-4.965-35.084-22.049-40.271z" fill="#3e84cb"/><path d="m207.943 497h-137.629c-5.908 0-10.698-4.79-10.698-10.698v-29.859c0-5.908 4.79-10.698 10.698-10.698h137.629c5.908 0 10.698 4.789 10.698 10.698v29.859c0 5.908-4.79 10.698-10.698 10.698z" fill="#eaf3ff"/><path d="m228.141 445.745h-33.664c5.908 0 10.698 4.79 10.698 10.698v29.859c0 5.908-4.79 10.698-10.698 10.698h33.664c5.908 0 10.698-4.79 10.698-10.698v-29.859c0-5.909-4.79-10.698-10.698-10.698z" fill="#d5eaff"/><path d="m333.544 95.044c0 52.491-32.553 94.044-85.044 94.044-5.104 0-10.115.598-15.001-.177-45.364-7.193-80.043-46.48-80.043-93.867s34.68-86.675 80.043-93.867c4.886-.775 9.897-.177 15.001-.177 52.491 0 85.044 41.553 85.044 94.044z" fill="#eaf3ff"/><path d="m248.5 0c-5.105 0-10.113.407-15 1.182 45.363 7.193 80.044 46.475 80.044 93.862s-34.681 86.669-80.044 93.862c4.887.775 9.895 1.182 15 1.182 52.492 0 95.044-42.553 95.044-95.044s-42.552-95.044-95.044-95.044z" fill="#d5eaff"/></g></svg>